<svg width="23" height="23" viewBox="0 0 23 23" fill="none" xmlns="http://www.w3.org/2000/svg">
<path d="M1.87988 0C1.3276 0 0.879883 0.447715 0.879883 1C0.879883 1.55228 1.3276 2 1.87988 2V0ZM4.10211 1L5.08249 0.802885C4.9886 0.335932 4.5784 0 4.10211 0V1ZM3.56617 3.40762C3.67503 3.94907 4.20222 4.29975 4.74366 4.19089C5.28511 4.08202 5.63579 3.55484 5.52693 3.01339L3.56617 3.40762ZM6.32433 11.0525C5.77204 11.0525 5.32433 11.5002 5.32433 12.0525C5.32433 12.6048 5.77204 13.0525 6.32433 13.0525V11.0525ZM17.4354 12.0525V13.0525C17.8134 13.0525 18.1592 12.8394 18.3289 12.5016L17.4354 12.0525ZM21.8799 3.21051L22.7734 3.65961C22.9292 3.34962 22.9132 2.98101 22.7311 2.68568C22.549 2.39035 22.2268 2.21051 21.8799 2.21051V3.21051ZM4.54655 2.21051C3.99426 2.21051 3.54655 2.65822 3.54655 3.21051C3.54655 3.76279 3.99426 4.21051 4.54655 4.21051V2.21051ZM5.34395 12.2496C5.45281 12.7911 5.97999 13.1418 6.52144 13.0329C7.06289 12.924 7.41357 12.3969 7.30471 11.8554L5.34395 12.2496ZM5.52693 3.01339C5.41807 2.47194 4.89088 2.12126 4.34943 2.23012C3.80799 2.33899 3.45731 2.86617 3.56617 3.40762L5.52693 3.01339ZM7.02956 12.7615C7.42112 12.372 7.42279 11.7388 7.0333 11.3473C6.64381 10.9557 6.01065 10.9541 5.61909 11.3436L7.02956 12.7615ZM3.77655 14.5869L3.07131 13.8779L3.77655 14.5869ZM17.4354 17.4735C17.9877 17.4735 18.4354 17.0258 18.4354 16.4735C18.4354 15.9213 17.9877 15.4735 17.4354 15.4735V17.4735ZM17.4354 16.4735H16.4354C16.4354 16.7397 16.5415 16.9948 16.7302 17.1825L17.4354 16.4735ZM19.6577 18.684L18.9524 19.393C19.1398 19.5794 19.3934 19.684 19.6577 19.684V18.684ZM8.54655 18.684L7.68167 18.1821C7.59317 18.3345 7.54655 18.5077 7.54655 18.684H8.54655ZM8.54655 20.8945H7.54655C7.54655 21.0709 7.59317 21.244 7.68167 21.3965L8.54655 20.8945ZM1.87988 2H4.10211V0H1.87988V2ZM3.12172 1.19712L3.56617 3.40762L5.52693 3.01339L5.08249 0.802885L3.12172 1.19712ZM6.32433 13.0525H17.4354V11.0525H6.32433V13.0525ZM18.3289 12.5016L22.7734 3.65961L20.9864 2.7614L16.542 11.6034L18.3289 12.5016ZM21.8799 2.21051H4.54655V4.21051H21.8799V2.21051ZM7.30471 11.8554L5.52693 3.01339L3.56617 3.40762L5.34395 12.2496L7.30471 11.8554ZM5.61909 11.3436L3.07131 13.8779L4.48178 15.2958L7.02956 12.7615L5.61909 11.3436ZM3.07131 13.8779C1.731 15.2111 2.69091 17.4735 4.56211 17.4735V15.4735C4.52196 15.4735 4.50541 15.4635 4.49723 15.4578C4.48461 15.4489 4.46926 15.4322 4.45876 15.407C4.44826 15.3817 4.44763 15.3602 4.44991 15.3471C4.45124 15.3395 4.45471 15.3228 4.48178 15.2958L3.07131 13.8779ZM4.56211 17.4735H17.4354V15.4735H4.56211V17.4735ZM18.4354 16.4735C18.4354 15.81 18.9777 15.263 19.6577 15.263V13.263C17.8831 13.263 16.4354 14.6954 16.4354 16.4735H18.4354ZM19.6577 15.263C20.3377 15.263 20.8799 15.81 20.8799 16.4735H22.8799C22.8799 14.6954 21.4323 13.263 19.6577 13.263V15.263ZM20.8799 16.4735C20.8799 17.1371 20.3377 17.684 19.6577 17.684V19.684C21.4323 19.684 22.8799 18.2516 22.8799 16.4735H20.8799ZM20.3629 17.9751L18.1407 15.7646L16.7302 17.1825L18.9524 19.393L20.3629 17.9751ZM9.41143 19.186C9.68663 18.7119 10.2509 18.4771 10.7887 18.6204L11.3037 16.6878C9.89843 16.3133 8.41226 16.9233 7.68167 18.1821L9.41143 19.186ZM10.7887 18.6204C11.3254 18.7635 11.6933 19.2451 11.6933 19.7893H13.6933C13.6933 18.3325 12.71 17.0627 11.3037 16.6878L10.7887 18.6204ZM11.6933 19.7893C11.6933 20.3335 11.3254 20.8151 10.7887 20.9582L11.3037 22.8907C12.71 22.5159 13.6933 21.2461 13.6933 19.7893H11.6933ZM10.7887 20.9582C10.2509 21.1015 9.68663 20.8667 9.41143 20.3926L7.68167 21.3965C8.41226 22.6553 9.89843 23.2653 11.3037 22.8907L10.7887 20.9582ZM9.54655 20.8945V18.684H7.54655V20.8945H9.54655Z" fill="#C7C7C7"/>
</svg>
