<svg width="7" height="8" viewBox="0 0 7 8" fill="none" xmlns="http://www.w3.org/2000/svg">
<path d="M6.02632 3.52632H3.97368V1.47368C3.97368 1.21474 3.76526 1 3.5 1C3.24105 1 3.02632 1.20842 3.02632 1.47368V3.52632H0.973684C0.714737 3.52632 0.5 3.73474 0.5 4C0.5 4.13263 0.550526 4.24632 0.638947 4.33474C0.727368 4.42316 0.841053 4.47368 0.973684 4.47368H3.02632V6.52632C3.02632 6.65895 3.07684 6.77263 3.16526 6.86105C3.25368 6.94947 3.36737 7 3.5 7C3.75895 7 3.97368 6.79158 3.97368 6.52632V4.47368H6.02632C6.28526 4.47368 6.5 4.26526 6.5 4C6.5 3.74105 6.29158 3.52632 6.02632 3.52632Z" fill="#ACD9B2" stroke="#ACD9B2"/>
</svg>
